<svg width="18" height="18" fill="none" xmlns="http://www.w3.org/2000/svg"><path d="M16.312 3.924a.463.463 0 00-.014-.111.643.643 0 00-.06-.153.487.487 0 00-.064-.092l-.01-.01c-.002-.004-.005-.006-.008-.009a.547.547 0 00-.062-.056l-.023-.017-.021-.014-.025-.015-.023-.012-.026-.012-.026-.01-.024-.01a.52.52 0 00-.028-.008l-.025-.006a.57.57 0 00-.11-.013l-.013-.001H2.239a.558.558 0 00-.085.009l-.027.005-.026.007-.027.007-.025.01-.025.01-.027.012-.021.012a.541.541 0 00-.026.016l-.02.013a.533.533 0 00-.086.073l-.009.008-.009.011a.585.585 0 00-.117.217.628.628 0 00-.02.14l-.002.013V13.5a1.126 1.126 0 001.125 1.125h12.376a1.126 1.126 0 001.124-1.125V3.937v-.013zM15.187 13.5H2.813V5.216L8.62 10.54a.563.563 0 00.76 0l5.808-5.324V13.5z" fill="#A2AFBB"/></svg>