<svg width="126" height="16" fill="none" xmlns="http://www.w3.org/2000/svg"><path d="M.14 15L5.48.86h2.74L13.54 15h-2.28l-1.04-2.84H3.46L2.42 15H.14zm4.02-4.74h5.36L6.84 2.88l-2.68 7.38zm16.64 4.9c-1.453 0-2.673-.307-3.66-.92-.973-.613-1.706-1.46-2.2-2.54-.493-1.08-.74-2.327-.74-3.74 0-1.413.247-2.667.74-3.76.507-1.093 1.247-1.947 2.22-2.56.987-.627 2.207-.94 3.66-.94 1.054 0 1.974.173 2.76.52.787.333 1.42.813 1.9 1.44.494.613.82 1.347.98 2.2h-2.08c-.2-.68-.606-1.22-1.22-1.62-.613-.4-1.4-.6-2.36-.6-1.066 0-1.926.247-2.58.74a4.228 4.228 0 00-1.4 1.94 7.271 7.271 0 00-.44 2.56c0 .947.154 1.827.46 2.64a4.239 4.239 0 001.46 1.96c.667.493 1.52.74 2.56.74.64 0 1.207-.087 1.7-.26a3.454 3.454 0 001.24-.78c.334-.347.56-.747.68-1.2h2.22c-.173.867-.526 1.613-1.06 2.24a5.184 5.184 0 01-2.02 1.44c-.813.333-1.753.5-2.82.5zm14.278 0c-1.454 0-2.674-.307-3.66-.92-.974-.613-1.707-1.46-2.2-2.54-.494-1.08-.74-2.327-.74-3.74 0-1.413.246-2.667.74-3.76.506-1.093 1.246-1.947 2.22-2.56.986-.627 2.206-.94 3.66-.94 1.053 0 1.973.173 2.76.52.786.333 1.42.813 1.9 1.44.493.613.82 1.347.98 2.2h-2.08c-.2-.68-.607-1.22-1.22-1.62-.614-.4-1.4-.6-2.36-.6-1.067 0-1.927.247-2.58.74a4.228 4.228 0 00-1.4 1.94 7.269 7.269 0 00-.44 2.56c0 .947.153 1.827.46 2.64a4.238 4.238 0 001.46 1.96c.666.493 1.52.74 2.56.74.64 0 1.206-.087 1.7-.26a3.455 3.455 0 001.24-.78c.333-.347.56-.747.68-1.2h2.22c-.174.867-.527 1.613-1.06 2.24a5.184 5.184 0 01-2.02 1.44c-.814.333-1.754.5-2.82.5zm13.96 0c-1.333 0-2.426-.267-3.28-.8a4.868 4.868 0 01-1.86-2.24c-.4-.947-.6-2.047-.6-3.3V.86h2.12v7.98c0 .787.114 1.513.34 2.18.227.667.607 1.2 1.14 1.6.534.4 1.254.6 2.16.6.92 0 1.64-.2 2.16-.6.52-.4.887-.933 1.1-1.6a7.12 7.12 0 00.32-2.18V.86h2.14v7.96c0 1.24-.2 2.34-.6 3.3a4.868 4.868 0 01-1.86 2.24c-.84.533-1.933.8-3.28.8zm8.97-.16V.86h5.44c.76 0 1.453.08 2.08.24a4.393 4.393 0 011.64.74c.466.333.826.787 1.08 1.36.253.573.38 1.28.38 2.12 0 .76-.134 1.413-.4 1.96a3.79 3.79 0 01-1.1 1.36 5.09 5.09 0 01-1.58.82l3.02 5.54h-2.34l-2.8-5.2h-3.3V15h-2.12zm2.12-7.1h2.88c.48 0 .926-.033 1.34-.1.426-.08.8-.213 1.12-.4.32-.2.566-.467.74-.8.186-.347.28-.787.28-1.32.013-.613-.107-1.1-.36-1.46-.24-.373-.6-.633-1.08-.78-.48-.16-1.06-.24-1.74-.24h-3.18v5.1zm17.219 7.26c-1.453 0-2.687-.307-3.7-.92a6.035 6.035 0 01-2.28-2.58c-.52-1.093-.78-2.333-.78-3.72 0-1.4.26-2.647.78-3.74a5.869 5.869 0 012.3-2.56c1.013-.627 2.247-.94 3.7-.94 1.467 0 2.7.307 3.7.92s1.76 1.467 2.28 2.56c.52 1.093.78 2.34.78 3.74 0 1.387-.26 2.627-.78 3.72a5.994 5.994 0 01-2.3 2.58c-1 .627-2.233.94-3.7.94zm.02-1.94c1.067 0 1.94-.247 2.62-.74a4.332 4.332 0 001.5-1.94c.32-.8.48-1.667.48-2.6 0-.707-.093-1.38-.28-2.02a4.912 4.912 0 00-.82-1.7 3.855 3.855 0 00-1.44-1.16c-.587-.28-1.273-.42-2.06-.42-1.053 0-1.927.247-2.62.74a4.469 4.469 0 00-1.52 1.94c-.333.8-.5 1.673-.5 2.62 0 .933.16 1.8.48 2.6.333.8.84 1.447 1.52 1.94.693.493 1.573.74 2.64.74z" fill="#549CDF"/><path d="M86.66 15V.86h5.1c1.053 0 1.96.167 2.72.5a3.701 3.701 0 011.78 1.56c.413.693.62 1.593.62 2.7 0 1.067-.24 1.96-.72 2.68a4.44 4.44 0 01-1.92 1.64c-.813.36-1.74.54-2.78.54h-2.68V15h-2.12zm2.12-6.44h2.6c1.013 0 1.827-.233 2.44-.7.613-.48.92-1.247.92-2.3 0-.92-.253-1.607-.76-2.06-.507-.467-1.273-.7-2.3-.7h-2.9v5.76zM99.414 15V.86h5.44c.76 0 1.453.08 2.08.24a4.393 4.393 0 011.64.74 3.23 3.23 0 011.08 1.36c.253.573.38 1.28.38 2.12 0 .76-.133 1.413-.4 1.96-.267.547-.633 1-1.1 1.36a5.09 5.09 0 01-1.58.82l3.02 5.54h-2.34l-2.8-5.2h-3.3V15h-2.12zm2.12-7.1h2.88c.48 0 .927-.033 1.34-.1.427-.08.8-.213 1.12-.4.32-.2.567-.467.74-.8.187-.347.28-.787.28-1.32.013-.613-.107-1.1-.36-1.46-.24-.373-.6-.633-1.08-.78-.48-.16-1.06-.24-1.74-.24h-3.18v5.1zm17.219 7.26c-1.453 0-2.686-.307-3.7-.92a6.035 6.035 0 01-2.28-2.58c-.52-1.093-.78-2.333-.78-3.72 0-1.4.26-2.647.78-3.74a5.87 5.87 0 012.3-2.56c1.014-.627 2.247-.94 3.7-.94 1.467 0 2.7.307 3.7.92s1.76 1.467 2.28 2.56c.52 1.093.78 2.34.78 3.74 0 1.387-.26 2.627-.78 3.72a5.99 5.99 0 01-2.3 2.58c-1 .627-2.233.94-3.7.94zm.02-1.94c1.067 0 1.94-.247 2.62-.74a4.332 4.332 0 001.5-1.94c.32-.8.48-1.667.48-2.6 0-.707-.093-1.38-.28-2.02a4.896 4.896 0 00-.82-1.7 3.85 3.85 0 00-1.44-1.16c-.586-.28-1.273-.42-2.06-.42-1.053 0-1.926.247-2.62.74a4.473 4.473 0 00-1.52 1.94 6.75 6.75 0 00-.5 2.62c0 .933.16 1.8.48 2.6.334.8.84 1.447 1.52 1.94.694.493 1.574.74 2.64.74z" fill="#fff"/></svg>