<svg width="127" height="16" fill="none" xmlns="http://www.w3.org/2000/svg"><path d="M11.14 15l-1.04-2.86H3.68L2.62 15H.1L5.46.86h2.88L13.68 15h-2.54zm-1.76-4.94L6.9 3.14l-2.5 6.92h4.98zm11.577-7.3c-.746 0-1.393.14-1.94.42-.533.28-.973.653-1.32 1.12a4.917 4.917 0 00-.78 1.64c-.16.613-.24 1.26-.24 1.94 0 .693.087 1.353.26 1.98a5.15 5.15 0 00.78 1.66c.36.467.814.84 1.36 1.12.547.28 1.194.42 1.94.42.92 0 1.687-.2 2.3-.6.627-.4 1.02-.94 1.18-1.62h2.32a4.606 4.606 0 01-.68 1.82 4.9 4.9 0 01-1.26 1.36c-.506.36-1.093.64-1.76.84-.666.187-1.38.28-2.14.28-1.106 0-2.08-.18-2.92-.54a5.793 5.793 0 01-2.08-1.5c-.56-.64-.98-1.4-1.26-2.28-.28-.88-.42-1.847-.42-2.9 0-1.027.14-1.98.42-2.86.294-.893.72-1.66 1.28-2.3a5.685 5.685 0 012.08-1.52c.84-.373 1.814-.56 2.92-.56 1.56 0 2.847.367 3.86 1.1 1.014.733 1.627 1.813 1.84 3.24h-2.28a2.695 2.695 0 00-1.16-1.64c-.6-.413-1.366-.62-2.3-.62zm14.278 0c-.747 0-1.393.14-1.94.42-.534.28-.974.653-1.32 1.12a4.921 4.921 0 00-.78 1.64c-.16.613-.24 1.26-.24 1.94 0 .693.087 1.353.26 1.98.173.627.433 1.18.78 1.66.36.467.813.84 1.36 1.12.547.28 1.193.42 1.94.42.92 0 1.686-.2 2.3-.6.627-.4 1.02-.94 1.18-1.62h2.32a4.605 4.605 0 01-.68 1.82 4.9 4.9 0 01-1.26 1.36c-.507.36-1.093.64-1.76.84-.667.187-1.38.28-2.14.28-1.107 0-2.08-.18-2.92-.54a5.793 5.793 0 01-2.08-1.5c-.56-.64-.98-1.4-1.26-2.28-.28-.88-.42-1.847-.42-2.9 0-1.027.14-1.98.42-2.86.293-.893.72-1.66 1.28-2.3a5.686 5.686 0 012.08-1.52c.84-.373 1.813-.56 2.92-.56 1.56 0 2.846.367 3.86 1.1 1.013.733 1.627 1.813 1.84 3.24h-2.28a2.695 2.695 0 00-1.16-1.64c-.6-.413-1.367-.62-2.3-.62zm19.88-1.9v7.82c0 .947-.112 1.82-.34 2.62-.212.787-.552 1.467-1.02 2.04-.466.573-1.072 1.02-1.82 1.34-.732.32-1.626.48-2.68.48-1.052 0-1.952-.16-2.7-.48a4.975 4.975 0 01-1.82-1.32c-.466-.573-.812-1.253-1.04-2.04-.212-.8-.32-1.68-.32-2.64V.86h2.32v7.9c0 .587.06 1.14.18 1.66s.32.98.6 1.38c.28.387.648.7 1.1.94.454.227 1.02.34 1.7.34.668 0 1.228-.113 1.68-.34.454-.24.814-.56 1.08-.96.28-.4.474-.86.58-1.38.12-.52.18-1.067.18-1.64V.86h2.32zm5.505 8.96V15H58.3V.86h5.5c.734 0 1.42.073 2.06.22.64.147 1.194.393 1.66.74.48.347.854.807 1.12 1.38.28.573.42 1.28.42 2.12 0 .573-.087 1.1-.26 1.58-.16.467-.38.88-.66 1.24-.28.347-.606.64-.98.88a4.317 4.317 0 01-1.2.5L69.02 15h-2.58c-.466-.867-.94-1.727-1.42-2.58-.466-.867-.94-1.733-1.42-2.6h-2.98zm2.86-2.02c.454 0 .88-.04 1.28-.12.4-.08.747-.213 1.04-.4.294-.187.52-.44.68-.76.173-.333.26-.753.26-1.26 0-.453-.073-.827-.22-1.12a1.614 1.614 0 00-.6-.7 2.38 2.38 0 00-.96-.38 5.93 5.93 0 00-1.24-.12h-3.1V7.8h2.86zm14.22 7.34c-1.107 0-2.087-.18-2.94-.54a6.164 6.164 0 01-2.12-1.52 6.655 6.655 0 01-1.32-2.28c-.294-.88-.44-1.84-.44-2.88 0-1.053.153-2.02.46-2.9.306-.893.746-1.66 1.32-2.3.586-.64 1.3-1.14 2.14-1.5.853-.36 1.826-.54 2.92-.54 1.093 0 2.06.18 2.9.54.853.347 1.566.84 2.14 1.48.586.64 1.026 1.407 1.32 2.3.306.88.46 1.847.46 2.9 0 1.04-.154 2.007-.46 2.9a6.252 6.252 0 01-1.32 2.28c-.574.64-1.287 1.147-2.14 1.52-.854.36-1.827.54-2.92.54zm.02-12.38c-.76 0-1.42.14-1.98.42a4.191 4.191 0 00-1.38 1.12 4.777 4.777 0 00-.84 1.64 7.32 7.32 0 00-.26 1.96c0 .68.086 1.333.26 1.96.186.613.46 1.16.82 1.64.373.48.84.86 1.4 1.14.56.28 1.22.42 1.98.42.746 0 1.4-.133 1.96-.4.56-.28 1.02-.653 1.38-1.12a4.535 4.535 0 00.82-1.62 6.97 6.97 0 00.28-2c0-.693-.094-1.347-.28-1.96a4.518 4.518 0 00-.82-1.64c-.36-.48-.82-.86-1.38-1.14-.547-.28-1.2-.42-1.96-.42z" fill="#549CDF"/><path d="M87.03.86h5.18c.814 0 1.54.093 2.18.28.654.173 1.207.453 1.66.84.467.387.82.887 1.06 1.5.254.6.38 1.327.38 2.18 0 .787-.133 1.487-.4 2.1a4.026 4.026 0 01-1.1 1.54 4.695 4.695 0 01-1.68.94c-.653.213-1.38.32-2.18.32h-2.78V15h-2.32V.86zm4.98 7.66c.894 0 1.634-.22 2.22-.66.6-.453.914-1.153.94-2.1 0-1-.26-1.72-.78-2.16-.506-.44-1.253-.66-2.24-.66h-2.8v5.58h2.66zm10.329 1.3V15h-2.32V.86h5.5c.733 0 1.42.073 2.06.22.64.147 1.193.393 1.66.74.48.347.853.807 1.12 1.38.28.573.42 1.28.42 2.12 0 .573-.087 1.1-.26 1.58-.16.467-.38.88-.66 1.24-.28.347-.607.64-.98.88a4.307 4.307 0 01-1.2.5l3.06 5.48h-2.58c-.467-.867-.94-1.727-1.42-2.58-.467-.867-.94-1.733-1.42-2.6h-2.98zm2.86-2.02c.453 0 .88-.04 1.28-.12.4-.08.747-.213 1.04-.4.293-.187.52-.44.68-.76.173-.333.26-.753.26-1.26 0-.453-.073-.827-.22-1.12a1.61 1.61 0 00-.6-.7 2.384 2.384 0 00-.96-.38 5.929 5.929 0 00-1.24-.12h-3.1V7.8h2.86zm14.219 7.34c-1.106 0-2.086-.18-2.94-.54a6.17 6.17 0 01-2.12-1.52 6.665 6.665 0 01-1.32-2.28c-.293-.88-.44-1.84-.44-2.88 0-1.053.154-2.02.46-2.9.307-.893.747-1.66 1.32-2.3.587-.64 1.3-1.14 2.14-1.5.854-.36 1.827-.54 2.92-.54 1.094 0 2.06.18 2.9.54a5.7 5.7 0 012.14 1.48c.587.64 1.027 1.407 1.32 2.3.307.88.46 1.847.46 2.9 0 1.04-.153 2.007-.46 2.9a6.243 6.243 0 01-1.32 2.28c-.573.64-1.286 1.147-2.14 1.52-.853.36-1.826.54-2.92.54zm.02-12.38c-.76 0-1.42.14-1.98.42a4.204 4.204 0 00-1.38 1.12 4.788 4.788 0 00-.84 1.64 7.332 7.332 0 00-.26 1.96c0 .68.087 1.333.26 1.96.187.613.46 1.16.82 1.64.374.48.84.86 1.4 1.14.56.28 1.22.42 1.98.42.747 0 1.4-.133 1.96-.4.56-.28 1.02-.653 1.38-1.12a4.52 4.52 0 00.82-1.62 6.96 6.96 0 00.28-2c0-.693-.093-1.347-.28-1.96a4.504 4.504 0 00-.82-1.64c-.36-.48-.82-.86-1.38-1.14-.546-.28-1.2-.42-1.96-.42z" fill="#35404B"/></svg>