<svg width="20" height="20" fill="none" xmlns="http://www.w3.org/2000/svg"><path d="M17.341 12.377l-3.659-1.568a1.247 1.247 0 00-1.186.109l-1.956 1.304a5.98 5.98 0 01-2.75-2.739l1.3-1.985a1.248 1.248 0 00.103-1.178l-1.57-3.662a1.252 1.252 0 00-1.301-.749A4.38 4.38 0 002.5 6.25c0 6.204 5.047 11.25 11.25 11.25a4.38 4.38 0 004.34-3.821 1.253 1.253 0 00-.748-1.301z" fill="url(#paint0_linear_1_990)"/><path d="M12.293 3.729a5.635 5.635 0 013.978 3.978.625.625 0 001.208-.323 6.887 6.887 0 00-4.863-4.863.625.625 0 00-.323 1.208z" fill="url(#paint1_linear_1_990)"/><path d="M11.646 6.144a3.13 3.13 0 012.21 2.21.625.625 0 001.207-.323 4.383 4.383 0 00-3.094-3.095.625.625 0 00-.323 1.208z" fill="url(#paint2_linear_1_990)"/><defs><linearGradient id="paint0_linear_1_990" x1="10.3" y1="1.9" x2="10.3" y2="17.5" gradientUnits="userSpaceOnUse"><stop stop-color="#549CDF"/><stop offset="1" stop-color="#40CFBE"/></linearGradient><linearGradient id="paint1_linear_1_990" x1="14.665" y1="2.5" x2="14.665" y2="8.169" gradientUnits="userSpaceOnUse"><stop stop-color="#549CDF"/><stop offset="1" stop-color="#40CFBE"/></linearGradient><linearGradient id="paint2_linear_1_990" x1="13.134" y1="4.916" x2="13.134" y2="8.816" gradientUnits="userSpaceOnUse"><stop stop-color="#549CDF"/><stop offset="1" stop-color="#40CFBE"/></linearGradient></defs></svg>