<svg width="42" height="42" fill="none" xmlns="http://www.w3.org/2000/svg"><path d="M21.001 39.01c-.168 0-.333-.04-.482-.117-.113-.057-2.802-1.434-6.315-3.989-3.242-2.362-7.82-6.214-11.196-11.168-.495-.724-.94-1.48-1.334-2.263a1.064 1.064 0 01.952-1.54h6.846l1.735-2.484a1.064 1.064 0 011.815.115l2.082 3.974 3.502-7.5a1.064 1.064 0 012.006.222l2.185 9.948 3.082-6.6a1.064 1.064 0 011.907-.043l2.267 4.328 1.05-1.504a1.064 1.064 0 01.873-.455h6.729c2.029-4.52 1.398-9.022-1.736-12.141-3.581-3.565-9.408-3.565-12.99 0-.607.605-1.372 1.32-2.182 2.079l-.067.062a1.064 1.064 0 01-1.455 0l-.07-.066c-.81-.76-1.574-1.47-2.18-2.077-3.581-3.565-9.409-3.565-12.99 0-2.37 2.358-3.335 5.55-2.726 8.985a1.065 1.065 0 11-2.095.373c-.366-2.05-.261-4.037.309-5.907a11.818 11.818 0 013.01-4.96c4.41-4.389 11.584-4.389 15.994 0 .42.418.926.9 1.474 1.415a66.974 66.974 0 001.475-1.415c4.41-4.389 11.584-4.389 15.993 0a11.817 11.817 0 013.435 6.954c.334 2.658-.213 5.505-1.576 8.236a1.064 1.064 0 01-.98.588h-6.816l-1.736 2.483a1.064 1.064 0 01-1.817-.11l-2.081-3.973-3.503 7.496a1.064 1.064 0 01-2.003-.222l-2.185-9.948-3.082 6.599a1.064 1.064 0 01-1.907.044l-2.267-4.328-1.05 1.503a1.066 1.066 0 01-.873.455H4.453c.102.16.207.318.314.476 3.195 4.688 7.56 8.364 10.658 10.626A54.064 54.064 0 0021 36.74c1.945-1.074 9.356-5.426 14.717-12.146a1.064 1.064 0 111.664 1.326c-3.393 4.258-7.528 7.552-10.4 9.57-3.111 2.185-5.4 3.358-5.497 3.405-.15.076-.315.115-.483.114z" fill="url(#paint0_linear_1_1005)"/><defs><linearGradient id="paint0_linear_1_1005" x1="21" y1="2.99" x2="21" y2="39.009" gradientUnits="userSpaceOnUse"><stop stop-color="#549CDF"/><stop offset="1" stop-color="#40CFBE"/></linearGradient></defs></svg>