<svg width="42" height="42" fill="none" xmlns="http://www.w3.org/2000/svg"><g clip-path="url(#clip0_1_1008)"><path d="M36.185 22.76a.984.984 0 00-.317.15l-8.688 6.188c-.477.17-2.841.922-7.474.93-.284-.08-.847-.398-1.042-.624.123-.116.453-.355 1.267-.636l9.604-3.321a.96.96 0 00.12-.051 2.967 2.967 0 00-.952-5.591.979.979 0 00-.272.003l-14.316 2.157a.984.984 0 00-.327.11A51.35 51.35 0 007.668 26a.984.984 0 00-.976-.868H2.03a2.095 2.095 0 00-2.093 2.093v12.683A2.095 2.095 0 002.031 42h4.66a.984.984 0 00.985-.984V39.89c2.431-1.555 3.736-2.007 4.405-2.104.943-.132 3.42-.115 9.86.713l.032.004c2.557.244 5.565-.879 9.195-3.435 2.972-2.093 5.835-4.77 8.135-6.922.757-.71 1.473-1.378 2.092-1.932a.987.987 0 00.191-.233c.476-.807.467-1.641-.026-2.29-1.031-1.359-3.764-1.363-5.375-.932zM2.03 40.031a.127.127 0 01-.124-.124V27.224a.127.127 0 01.124-.124h3.677v12.931H2.03zm37.918-15.164c-.603.543-1.279 1.175-1.991 1.842-4.377 4.095-10.988 10.28-15.782 9.836-5.411-.696-8.802-.927-10.373-.707-1.05.152-2.41.726-4.126 1.74v-9.085c1.437-1.173 3.72-2.842 6.907-4.607l13.984-2.108c.573.132.704.641.732.802.028.166.074.72-.478 1.03l-9.534 3.297c-.897.31-1.543.658-1.974 1.063-.7.66-.702 1.354-.64 1.709.244 1.415 2.29 2.316 2.958 2.318 5.639 0 8.283-1.07 8.393-1.115a.984.984 0 00.194-.107l8.64-6.154c1.374-.319 2.79-.058 3.099.224l-.009.022zm-.643-23.76c-2.293-1.658-5.537-1.424-8.133.51-2.597-1.934-5.842-2.168-8.134-.51-1.287.931-2.2 2.377-2.573 4.071a7.813 7.813 0 00.476 4.836c2.138 4.276 5.333 7.498 9.77 9.85a.985.985 0 00.922 0c4.436-2.352 7.631-5.574 9.769-9.85l.02-.043a7.812 7.812 0 00.456-4.793c-.372-1.694-1.286-3.14-2.573-4.07zm.325 8.049c-1.873 3.736-4.644 6.593-8.459 8.718-3.814-2.125-6.585-4.982-8.458-8.718-1-2.298-.354-5.128 1.479-6.454 2.02-1.461 4.693-.548 6.32.919a.984.984 0 001.318 0c1.628-1.467 4.3-2.38 6.321-.918 1.833 1.325 2.48 4.155 1.479 6.453z" fill="url(#paint0_linear_1_1008)"/></g><defs><linearGradient id="paint0_linear_1_1008" x1="21.001" y1=".001" x2="21.001" y2="42" gradientUnits="userSpaceOnUse"><stop stop-color="#549CDF"/><stop offset="1" stop-color="#40CFBE"/></linearGradient><clipPath id="clip0_1_1008"><path fill="#fff" d="M0 0h42v42H0z"/></clipPath></defs></svg>