<svg width="42" height="42" fill="none" xmlns="http://www.w3.org/2000/svg"><path d="M10.086 35.37c-2.93 0-5.4-2.346-5.4-5.23 0-1.26.453-2.417 1.208-3.319-2.627-.313-4.663-2.513-4.663-5.184 0-2.806 2.248-5.094 5.068-5.217a5.151 5.151 0 01-1.182-3.285c0-2.884 2.383-5.224 5.313-5.224a5.212 5.212 0 01-.045-.686c0-2.885 2.375-5.223 5.305-5.223 2.93 0 5.304 2.338 5.304 5.223h.007v27.372c0 2.983-2.456 5.401-5.486 5.401-2.762 0-5.048-2.011-5.429-4.627z" stroke="url(#paint0_linear_1_1000)" stroke-width="2" stroke-miterlimit="10" stroke-linecap="round" stroke-linejoin="round"/><path d="M10.128 16.904c2.286 0 4.14 1.825 4.14 4.076 0 2.25-1.854 4.076-4.14 4.076M10.43 7.91c.328 2.461 2.467 4.361 5.056 4.361m-5.4 23.099a5.363 5.363 0 01-.056-.774c0-2.982 2.456-5.4 5.485-5.4m5.484 5.4c0 2.983 2.456 5.4 5.485 5.4 2.763 0 5.049-2.01 5.43-4.627 2.93 0 5.4-2.346 5.4-5.23 0-1.26-.453-2.417-1.208-3.319 2.627-.312 4.662-2.513 4.662-5.184 0-2.806-2.248-5.094-5.067-5.217a5.152 5.152 0 001.181-3.285c0-2.884-2.383-5.224-5.312-5.224.03-.224.045-.453.045-.686 0-2.885-2.375-5.223-5.305-5.223-2.93 0-5.305 2.338-5.305 5.223H21" stroke="url(#paint1_linear_1_1000)" stroke-width="2" stroke-miterlimit="10" stroke-linecap="round" stroke-linejoin="round"/><path d="M31.872 16.904c-2.287 0-4.14 1.825-4.14 4.076 0 2.251 1.854 4.076 4.14 4.076M31.57 7.91c-.328 2.462-2.467 4.362-5.056 4.362m5.4 23.098a5.36 5.36 0 00.055-.774c0-2.982-2.455-5.4-5.485-5.4" stroke="url(#paint2_linear_1_1000)" stroke-width="2" stroke-miterlimit="10" stroke-linecap="round" stroke-linejoin="round"/><defs><linearGradient id="paint0_linear_1_1000" x1="11.116" y1="2.002" x2="11.116" y2="39.998" gradientUnits="userSpaceOnUse"><stop stop-color="#549CDF"/><stop offset="1" stop-color="#40CFBE"/></linearGradient><linearGradient id="paint1_linear_1_1000" x1="25.399" y1="2.002" x2="25.399" y2="39.998" gradientUnits="userSpaceOnUse"><stop stop-color="#549CDF"/><stop offset="1" stop-color="#40CFBE"/></linearGradient><linearGradient id="paint2_linear_1_1000" x1="29.227" y1="7.911" x2="29.227" y2="35.371" gradientUnits="userSpaceOnUse"><stop stop-color="#549CDF"/><stop offset="1" stop-color="#40CFBE"/></linearGradient></defs></svg>