<svg width="48" height="48" fill="none" xmlns="http://www.w3.org/2000/svg"><path d="M8.462 36.753a1.502 1.502 0 001.87 1.1 51.356 51.356 0 0127.327-.003 1.502 1.502 0 001.87-1.099l4.779-20.31a1.5 1.5 0 00-2.07-1.713l-9.484 4.215a1.5 1.5 0 01-1.92-.642L25.31 8.36a1.5 1.5 0 00-2.622 0l-5.523 9.94a1.5 1.5 0 01-1.92.642L5.76 14.727a1.5 1.5 0 00-2.07 1.714l4.772 20.312z" stroke="url(#paint0_linear_1_961)" stroke-width="3" stroke-linecap="round" stroke-linejoin="round"/><path d="M18 30.315c3.989-.42 8.011-.42 12 0" stroke="url(#paint1_linear_1_961)" stroke-width="3" stroke-linecap="round" stroke-linejoin="round"/><defs><linearGradient id="paint0_linear_1_961" x1="23.999" y1="7.589" x2="23.999" y2="37.909" gradientUnits="userSpaceOnUse"><stop stop-color="#549CDF"/><stop offset="1" stop-color="#40CFBE"/></linearGradient><linearGradient id="paint1_linear_1_961" x1="24" y1="30" x2="24" y2="30.315" gradientUnits="userSpaceOnUse"><stop stop-color="#549CDF"/><stop offset="1" stop-color="#40CFBE"/></linearGradient></defs></svg>