<svg width="127" height="16" viewBox="0 0 127 16" fill="none" xmlns="http://www.w3.org/2000/svg">
<path d="M11.14 15L10.1 12.14H3.68L2.62 15H0.1L5.46 0.86H8.34L13.68 15H11.14ZM9.38 10.06L6.9 3.14L4.4 10.06H9.38ZM20.9575 2.76C20.2108 2.76 19.5642 2.9 19.0175 3.18C18.4842 3.46 18.0442 3.83333 17.6975 4.3C17.3508 4.76667 17.0908 5.31333 16.9175 5.94C16.7575 6.55333 16.6775 7.2 16.6775 7.88C16.6775 8.57333 16.7642 9.23333 16.9375 9.86C17.1108 10.4867 17.3708 11.04 17.7175 11.52C18.0775 11.9867 18.5308 12.36 19.0775 12.64C19.6242 12.92 20.2708 13.06 21.0175 13.06C21.9375 13.06 22.7042 12.86 23.3175 12.46C23.9442 12.06 24.3375 11.52 24.4975 10.84H26.8175C26.7108 11.52 26.4842 12.1267 26.1375 12.66C25.8042 13.1933 25.3842 13.6467 24.8775 14.02C24.3708 14.38 23.7842 14.66 23.1175 14.86C22.4508 15.0467 21.7375 15.14 20.9775 15.14C19.8708 15.14 18.8975 14.96 18.0575 14.6C17.2308 14.24 16.5375 13.74 15.9775 13.1C15.4175 12.46 14.9975 11.7 14.7175 10.82C14.4375 9.94 14.2975 8.97333 14.2975 7.92C14.2975 6.89333 14.4375 5.94 14.7175 5.06C15.0108 4.16667 15.4375 3.4 15.9975 2.76C16.5575 2.10667 17.2508 1.6 18.0775 1.24C18.9175 0.866666 19.8908 0.68 20.9975 0.68C22.5575 0.68 23.8442 1.04667 24.8575 1.78C25.8708 2.51333 26.4842 3.59333 26.6975 5.02H24.4175C24.2442 4.32667 23.8575 3.78 23.2575 3.38C22.6575 2.96667 21.8908 2.76 20.9575 2.76ZM35.2348 2.76C34.4882 2.76 33.8415 2.9 33.2948 3.18C32.7615 3.46 32.3215 3.83333 31.9748 4.3C31.6282 4.76667 31.3682 5.31333 31.1948 5.94C31.0348 6.55333 30.9548 7.2 30.9548 7.88C30.9548 8.57333 31.0415 9.23333 31.2148 9.86C31.3882 10.4867 31.6482 11.04 31.9948 11.52C32.3548 11.9867 32.8082 12.36 33.3548 12.64C33.9015 12.92 34.5482 13.06 35.2948 13.06C36.2148 13.06 36.9815 12.86 37.5948 12.46C38.2215 12.06 38.6148 11.52 38.7748 10.84H41.0948C40.9882 11.52 40.7615 12.1267 40.4148 12.66C40.0815 13.1933 39.6615 13.6467 39.1548 14.02C38.6482 14.38 38.0615 14.66 37.3948 14.86C36.7282 15.0467 36.0148 15.14 35.2548 15.14C34.1482 15.14 33.1748 14.96 32.3348 14.6C31.5082 14.24 30.8148 13.74 30.2548 13.1C29.6948 12.46 29.2748 11.7 28.9948 10.82C28.7148 9.94 28.5748 8.97333 28.5748 7.92C28.5748 6.89333 28.7148 5.94 28.9948 5.06C29.2882 4.16667 29.7148 3.4 30.2748 2.76C30.8348 2.10667 31.5282 1.6 32.3548 1.24C33.1948 0.866666 34.1682 0.68 35.2748 0.68C36.8348 0.68 38.1215 1.04667 39.1348 1.78C40.1482 2.51333 40.7615 3.59333 40.9748 5.02H38.6948C38.5215 4.32667 38.1348 3.78 37.5348 3.38C36.9348 2.96667 36.1682 2.76 35.2348 2.76ZM55.1159 0.86V8.68C55.1159 9.62667 55.0026 10.5 54.7759 11.3C54.5626 12.0867 54.2226 12.7667 53.7559 13.34C53.2893 13.9133 52.6826 14.36 51.9359 14.68C51.2026 15 50.3093 15.16 49.2559 15.16C48.2026 15.16 47.3026 15 46.5559 14.68C45.8226 14.36 45.2159 13.92 44.7359 13.36C44.2693 12.7867 43.9226 12.1067 43.6959 11.32C43.4826 10.52 43.3759 9.64 43.3759 8.68V0.86H45.6959V8.76C45.6959 9.34667 45.7559 9.9 45.8759 10.42C45.9959 10.94 46.1959 11.4 46.4759 11.8C46.7559 12.1867 47.1226 12.5 47.5759 12.74C48.0293 12.9667 48.5959 13.08 49.2759 13.08C49.9426 13.08 50.5026 12.9667 50.9559 12.74C51.4093 12.5 51.7693 12.18 52.0359 11.78C52.3159 11.38 52.5093 10.92 52.6159 10.4C52.7359 9.88 52.7959 9.33333 52.7959 8.76V0.86H55.1159ZM60.6202 9.82V15H58.3002V0.86H63.8002C64.5335 0.86 65.2202 0.933333 65.8602 1.08C66.5002 1.22667 67.0535 1.47333 67.5202 1.82C68.0002 2.16667 68.3735 2.62667 68.6402 3.2C68.9202 3.77333 69.0602 4.48 69.0602 5.32C69.0602 5.89333 68.9735 6.42 68.8002 6.9C68.6402 7.36667 68.4202 7.78 68.1402 8.14C67.8602 8.48667 67.5335 8.78 67.1602 9.02C66.7868 9.24667 66.3868 9.41333 65.9602 9.52L69.0202 15H66.4402C65.9735 14.1333 65.5002 13.2733 65.0202 12.42C64.5535 11.5533 64.0802 10.6867 63.6002 9.82H60.6202ZM63.4802 7.8C63.9335 7.8 64.3602 7.76 64.7602 7.68C65.1602 7.6 65.5068 7.46667 65.8002 7.28C66.0935 7.09333 66.3202 6.84 66.4802 6.52C66.6535 6.18667 66.7402 5.76667 66.7402 5.26C66.7402 4.80667 66.6668 4.43333 66.5202 4.14C66.3868 3.84667 66.1868 3.61333 65.9202 3.44C65.6535 3.25333 65.3335 3.12667 64.9602 3.06C64.5868 2.98 64.1735 2.94 63.7202 2.94H60.6202V7.8H63.4802ZM77.6995 15.14C76.5929 15.14 75.6129 14.96 74.7595 14.6C73.9195 14.2267 73.2129 13.72 72.6395 13.08C72.0662 12.44 71.6262 11.68 71.3195 10.8C71.0262 9.92 70.8795 8.96 70.8795 7.92C70.8795 6.86667 71.0329 5.9 71.3395 5.02C71.6462 4.12667 72.0862 3.36 72.6595 2.72C73.2462 2.08 73.9595 1.58 74.7995 1.22C75.6529 0.86 76.6262 0.68 77.7195 0.68C78.8129 0.68 79.7795 0.86 80.6195 1.22C81.4729 1.56667 82.1862 2.06 82.7595 2.7C83.3462 3.34 83.7862 4.10667 84.0795 5C84.3862 5.88 84.5395 6.84667 84.5395 7.9C84.5395 8.94 84.3862 9.90667 84.0795 10.8C83.7862 11.68 83.3462 12.44 82.7595 13.08C82.1862 13.72 81.4729 14.2267 80.6195 14.6C79.7662 14.96 78.7929 15.14 77.6995 15.14ZM77.7195 2.76C76.9595 2.76 76.2995 2.9 75.7395 3.18C75.1929 3.46 74.7329 3.83333 74.3595 4.3C73.9862 4.76667 73.7062 5.31333 73.5195 5.94C73.3462 6.56667 73.2595 7.22 73.2595 7.9C73.2595 8.58 73.3462 9.23333 73.5195 9.86C73.7062 10.4733 73.9795 11.02 74.3395 11.5C74.7129 11.98 75.1795 12.36 75.7395 12.64C76.2995 12.92 76.9595 13.06 77.7195 13.06C78.4662 13.06 79.1195 12.9267 79.6795 12.66C80.2395 12.38 80.6995 12.0067 81.0595 11.54C81.4329 11.0733 81.7062 10.5333 81.8795 9.92C82.0662 9.29333 82.1595 8.62667 82.1595 7.92C82.1595 7.22667 82.0662 6.57333 81.8795 5.96C81.7062 5.33333 81.4329 4.78667 81.0595 4.32C80.6995 3.84 80.2395 3.46 79.6795 3.18C79.1329 2.9 78.4795 2.76 77.7195 2.76Z" fill="#549CDF"/>
<path d="M87.0306 0.86H92.2106C93.024 0.86 93.7506 0.953333 94.3906 1.14C95.044 1.31333 95.5973 1.59333 96.0506 1.98C96.5173 2.36667 96.8706 2.86667 97.1106 3.48C97.364 4.08 97.4906 4.80667 97.4906 5.66C97.4906 6.44667 97.3573 7.14667 97.0906 7.76C96.8373 8.37333 96.4706 8.88667 95.9906 9.3C95.524 9.71333 94.964 10.0267 94.3106 10.24C93.6573 10.4533 92.9306 10.56 92.1306 10.56H89.3506V15H87.0306V0.86ZM92.0106 8.52C92.904 8.52 93.644 8.3 94.2306 7.86C94.8306 7.40667 95.144 6.70667 95.1706 5.76C95.1706 4.76 94.9106 4.04 94.3906 3.6C93.884 3.16 93.1373 2.94 92.1506 2.94H89.3506V8.52H92.0106ZM102.339 9.82V15H100.019V0.86H105.519C106.252 0.86 106.939 0.933333 107.579 1.08C108.219 1.22667 108.772 1.47333 109.239 1.82C109.719 2.16667 110.092 2.62667 110.359 3.2C110.639 3.77333 110.779 4.48 110.779 5.32C110.779 5.89333 110.692 6.42 110.519 6.9C110.359 7.36667 110.139 7.78 109.859 8.14C109.579 8.48667 109.252 8.78 108.879 9.02C108.506 9.24667 108.106 9.41333 107.679 9.52L110.739 15H108.159C107.692 14.1333 107.219 13.2733 106.739 12.42C106.272 11.5533 105.799 10.6867 105.319 9.82H102.339ZM105.199 7.8C105.652 7.8 106.079 7.76 106.479 7.68C106.879 7.6 107.226 7.46667 107.519 7.28C107.812 7.09333 108.039 6.84 108.199 6.52C108.372 6.18667 108.459 5.76667 108.459 5.26C108.459 4.80667 108.386 4.43333 108.239 4.14C108.106 3.84667 107.906 3.61333 107.639 3.44C107.372 3.25333 107.052 3.12667 106.679 3.06C106.306 2.98 105.892 2.94 105.439 2.94H102.339V7.8H105.199ZM119.418 15.14C118.312 15.14 117.332 14.96 116.478 14.6C115.638 14.2267 114.932 13.72 114.358 13.08C113.785 12.44 113.345 11.68 113.038 10.8C112.745 9.92 112.598 8.96 112.598 7.92C112.598 6.86667 112.752 5.9 113.058 5.02C113.365 4.12667 113.805 3.36 114.378 2.72C114.965 2.08 115.678 1.58 116.518 1.22C117.372 0.86 118.345 0.68 119.438 0.68C120.532 0.68 121.498 0.86 122.338 1.22C123.192 1.56667 123.905 2.06 124.478 2.7C125.065 3.34 125.505 4.10667 125.798 5C126.105 5.88 126.258 6.84667 126.258 7.9C126.258 8.94 126.105 9.90667 125.798 10.8C125.505 11.68 125.065 12.44 124.478 13.08C123.905 13.72 123.192 14.2267 122.338 14.6C121.485 14.96 120.512 15.14 119.418 15.14ZM119.438 2.76C118.678 2.76 118.018 2.9 117.458 3.18C116.912 3.46 116.452 3.83333 116.078 4.3C115.705 4.76667 115.425 5.31333 115.238 5.94C115.065 6.56667 114.978 7.22 114.978 7.9C114.978 8.58 115.065 9.23333 115.238 9.86C115.425 10.4733 115.698 11.02 116.058 11.5C116.432 11.98 116.898 12.36 117.458 12.64C118.018 12.92 118.678 13.06 119.438 13.06C120.185 13.06 120.838 12.9267 121.398 12.66C121.958 12.38 122.418 12.0067 122.778 11.54C123.152 11.0733 123.425 10.5333 123.598 9.92C123.785 9.29333 123.878 8.62667 123.878 7.92C123.878 7.22667 123.785 6.57333 123.598 5.96C123.425 5.33333 123.152 4.78667 122.778 4.32C122.418 3.84 121.958 3.46 121.398 3.18C120.852 2.9 120.198 2.76 119.438 2.76Z" fill="#35404B"/>
</svg>
