<svg width="126" height="16" viewBox="0 0 126 16" fill="none" xmlns="http://www.w3.org/2000/svg">
<path d="M0.14 15L5.48 0.86H8.22L13.54 15H11.26L10.22 12.16H3.46L2.42 15H0.14ZM4.16 10.26H9.52L6.84 2.88L4.16 10.26ZM20.8003 15.16C19.347 15.16 18.127 14.8533 17.1403 14.24C16.167 13.6267 15.4336 12.78 14.9403 11.7C14.447 10.62 14.2003 9.37333 14.2003 7.96C14.2003 6.54667 14.447 5.29333 14.9403 4.2C15.447 3.10667 16.187 2.25333 17.1603 1.64C18.147 1.01333 19.367 0.699999 20.8203 0.699999C21.8736 0.699999 22.7936 0.873333 23.5803 1.22C24.367 1.55333 25.0003 2.03333 25.4803 2.66C25.9736 3.27333 26.3003 4.00667 26.4603 4.86H24.3803C24.1803 4.18 23.7736 3.64 23.1603 3.24C22.547 2.84 21.7603 2.64 20.8003 2.64C19.7336 2.64 18.8736 2.88667 18.2203 3.38C17.5803 3.87333 17.1136 4.52 16.8203 5.32C16.527 6.10667 16.3803 6.96 16.3803 7.88C16.3803 8.82667 16.5336 9.70667 16.8403 10.52C17.147 11.3333 17.6336 11.9867 18.3003 12.48C18.967 12.9733 19.8203 13.22 20.8603 13.22C21.5003 13.22 22.067 13.1333 22.5603 12.96C23.0536 12.7733 23.467 12.5133 23.8003 12.18C24.1336 11.8333 24.3603 11.4333 24.4803 10.98H26.7003C26.527 11.8467 26.1736 12.5933 25.6403 13.22C25.107 13.8467 24.4336 14.3267 23.6203 14.66C22.807 14.9933 21.867 15.16 20.8003 15.16ZM35.0777 15.16C33.6243 15.16 32.4043 14.8533 31.4177 14.24C30.4443 13.6267 29.711 12.78 29.2177 11.7C28.7243 10.62 28.4777 9.37333 28.4777 7.96C28.4777 6.54667 28.7243 5.29333 29.2177 4.2C29.7243 3.10667 30.4643 2.25333 31.4377 1.64C32.4243 1.01333 33.6443 0.699999 35.0977 0.699999C36.151 0.699999 37.071 0.873333 37.8577 1.22C38.6443 1.55333 39.2777 2.03333 39.7577 2.66C40.251 3.27333 40.5777 4.00667 40.7377 4.86H38.6577C38.4577 4.18 38.051 3.64 37.4377 3.24C36.8243 2.84 36.0377 2.64 35.0777 2.64C34.011 2.64 33.151 2.88667 32.4977 3.38C31.8577 3.87333 31.391 4.52 31.0977 5.32C30.8043 6.10667 30.6577 6.96 30.6577 7.88C30.6577 8.82667 30.811 9.70667 31.1177 10.52C31.4243 11.3333 31.911 11.9867 32.5777 12.48C33.2443 12.9733 34.0977 13.22 35.1377 13.22C35.7777 13.22 36.3443 13.1333 36.8377 12.96C37.331 12.7733 37.7443 12.5133 38.0777 12.18C38.411 11.8333 38.6377 11.4333 38.7577 10.98H40.9777C40.8043 11.8467 40.451 12.5933 39.9177 13.22C39.3843 13.8467 38.711 14.3267 37.8977 14.66C37.0843 14.9933 36.1443 15.16 35.0777 15.16ZM49.0383 15.16C47.7049 15.16 46.6116 14.8933 45.7583 14.36C44.9183 13.8133 44.2983 13.0667 43.8983 12.12C43.4983 11.1733 43.2983 10.0733 43.2983 8.82V0.86H45.4183V8.84C45.4183 9.62667 45.5316 10.3533 45.7583 11.02C45.9849 11.6867 46.3649 12.22 46.8983 12.62C47.4316 13.02 48.1516 13.22 49.0583 13.22C49.9783 13.22 50.6983 13.02 51.2183 12.62C51.7383 12.22 52.1049 11.6867 52.3183 11.02C52.5316 10.3533 52.6383 9.62667 52.6383 8.84V0.86H54.7783V8.82C54.7783 10.06 54.5783 11.16 54.1783 12.12C53.7783 13.0667 53.1583 13.8133 52.3183 14.36C51.4783 14.8933 50.3849 15.16 49.0383 15.16ZM58.0077 15V0.86H63.4477C64.2077 0.86 64.901 0.939999 65.5277 1.1C66.1543 1.24667 66.701 1.49333 67.1677 1.84C67.6343 2.17333 67.9943 2.62667 68.2477 3.2C68.501 3.77333 68.6277 4.48 68.6277 5.32C68.6277 6.08 68.4943 6.73333 68.2277 7.28C67.961 7.82667 67.5943 8.28 67.1277 8.64C66.661 9 66.1343 9.27333 65.5477 9.46L68.5677 15H66.2277L63.4277 9.8H60.1277V15H58.0077ZM60.1277 7.9H63.0077C63.4877 7.9 63.9343 7.86667 64.3477 7.8C64.7743 7.72 65.1477 7.58667 65.4677 7.4C65.7877 7.2 66.0343 6.93333 66.2077 6.6C66.3943 6.25333 66.4877 5.81333 66.4877 5.28C66.501 4.66667 66.381 4.18 66.1277 3.82C65.8877 3.44667 65.5277 3.18667 65.0477 3.04C64.5677 2.88 63.9877 2.8 63.3077 2.8H60.1277V7.9ZM77.347 15.16C75.8937 15.16 74.6604 14.8533 73.647 14.24C72.647 13.6133 71.887 12.7533 71.367 11.66C70.847 10.5667 70.587 9.32667 70.587 7.94C70.587 6.54 70.847 5.29333 71.367 4.2C71.887 3.10667 72.6537 2.25333 73.667 1.64C74.6804 1.01333 75.9137 0.699999 77.367 0.699999C78.8337 0.699999 80.067 1.00667 81.067 1.62C82.067 2.23333 82.827 3.08667 83.347 4.18C83.867 5.27333 84.127 6.52 84.127 7.92C84.127 9.30667 83.867 10.5467 83.347 11.64C82.827 12.7333 82.0604 13.5933 81.047 14.22C80.047 14.8467 78.8137 15.16 77.347 15.16ZM77.367 13.22C78.4337 13.22 79.307 12.9733 79.987 12.48C80.667 11.9867 81.167 11.34 81.487 10.54C81.807 9.74 81.967 8.87333 81.967 7.94C81.967 7.23333 81.8737 6.56 81.687 5.92C81.5137 5.28 81.2404 4.71333 80.867 4.22C80.4937 3.72667 80.0137 3.34 79.427 3.06C78.8404 2.78 78.1537 2.64 77.367 2.64C76.3137 2.64 75.4404 2.88667 74.747 3.38C74.067 3.87333 73.5604 4.52 73.227 5.32C72.8937 6.12 72.727 6.99333 72.727 7.94C72.727 8.87333 72.887 9.74 73.207 10.54C73.5404 11.34 74.047 11.9867 74.727 12.48C75.4204 12.9733 76.3004 13.22 77.367 13.22Z" fill="#549CDF"/>
<path d="M86.66 15V0.86H91.76C92.8133 0.86 93.72 1.02667 94.48 1.36C95.2533 1.69333 95.8467 2.21333 96.26 2.92C96.6733 3.61333 96.88 4.51333 96.88 5.62C96.88 6.68667 96.64 7.58 96.16 8.3C95.6933 9.02 95.0533 9.56667 94.24 9.94C93.4267 10.3 92.5 10.48 91.46 10.48H88.78V15H86.66ZM88.78 8.56H91.38C92.3933 8.56 93.2067 8.32667 93.82 7.86C94.4333 7.38 94.74 6.61333 94.74 5.56C94.74 4.64 94.4867 3.95333 93.98 3.5C93.4733 3.03333 92.7067 2.8 91.68 2.8H88.78V8.56ZM99.4139 15V0.86H104.854C105.614 0.86 106.307 0.939999 106.934 1.1C107.561 1.24667 108.107 1.49333 108.574 1.84C109.041 2.17333 109.401 2.62667 109.654 3.2C109.907 3.77333 110.034 4.48 110.034 5.32C110.034 6.08 109.901 6.73333 109.634 7.28C109.367 7.82667 109.001 8.28 108.534 8.64C108.067 9 107.541 9.27333 106.954 9.46L109.974 15H107.634L104.834 9.8H101.534V15H99.4139ZM101.534 7.9H104.414C104.894 7.9 105.341 7.86667 105.754 7.8C106.181 7.72 106.554 7.58667 106.874 7.4C107.194 7.2 107.441 6.93333 107.614 6.6C107.801 6.25333 107.894 5.81333 107.894 5.28C107.907 4.66667 107.787 4.18 107.534 3.82C107.294 3.44667 106.934 3.18667 106.454 3.04C105.974 2.88 105.394 2.8 104.714 2.8H101.534V7.9ZM118.753 15.16C117.3 15.16 116.067 14.8533 115.053 14.24C114.053 13.6133 113.293 12.7533 112.773 11.66C112.253 10.5667 111.993 9.32667 111.993 7.94C111.993 6.54 112.253 5.29333 112.773 4.2C113.293 3.10667 114.06 2.25333 115.073 1.64C116.087 1.01333 117.32 0.699999 118.773 0.699999C120.24 0.699999 121.473 1.00667 122.473 1.62C123.473 2.23333 124.233 3.08667 124.753 4.18C125.273 5.27333 125.533 6.52 125.533 7.92C125.533 9.30667 125.273 10.5467 124.753 11.64C124.233 12.7333 123.467 13.5933 122.453 14.22C121.453 14.8467 120.22 15.16 118.753 15.16ZM118.773 13.22C119.84 13.22 120.713 12.9733 121.393 12.48C122.073 11.9867 122.573 11.34 122.893 10.54C123.213 9.74 123.373 8.87333 123.373 7.94C123.373 7.23333 123.28 6.56 123.093 5.92C122.92 5.28 122.647 4.71333 122.273 4.22C121.9 3.72667 121.42 3.34 120.833 3.06C120.247 2.78 119.56 2.64 118.773 2.64C117.72 2.64 116.847 2.88667 116.153 3.38C115.473 3.87333 114.967 4.52 114.633 5.32C114.3 6.12 114.133 6.99333 114.133 7.94C114.133 8.87333 114.293 9.74 114.613 10.54C114.947 11.34 115.453 11.9867 116.133 12.48C116.827 12.9733 117.707 13.22 118.773 13.22Z" fill="white"/>
</svg>
