<svg width="20" height="20" viewBox="0 0 20 20" fill="none" xmlns="http://www.w3.org/2000/svg">
<path d="M17.3415 12.3768L13.6823 10.8086C13.4913 10.7264 13.2827 10.6933 13.0756 10.7123C12.8684 10.7313 12.6694 10.8019 12.4965 10.9176L10.54 12.2217C9.34426 11.6402 8.37647 10.6766 7.78961 9.48347L7.78976 9.48332L9.08935 7.49754C9.20248 7.32515 9.27111 7.1274 9.28911 6.922C9.30711 6.71659 9.27392 6.50992 9.1925 6.32048L7.62283 2.65814C7.51599 2.40954 7.33149 2.20224 7.09696 2.06728C6.86243 1.93231 6.5905 1.87695 6.32187 1.90947C5.2663 2.04519 4.29623 2.56056 3.5929 3.35929C2.88957 4.15803 2.50108 5.18549 2.5 6.24976C2.5 12.4531 7.54669 17.4998 13.75 17.4998C14.8143 17.4987 15.8418 17.1102 16.6405 16.4068C17.4392 15.7035 17.9546 14.7334 18.0903 13.6778C18.1227 13.4092 18.0673 13.1373 17.9323 12.9028C17.7974 12.6683 17.5901 12.4837 17.3415 12.3768Z" fill="url(#paint0_linear_1_990)"/>
<path d="M12.2929 3.72892C13.2464 3.98531 14.1158 4.48776 14.814 5.18594C15.5122 5.88413 16.0146 6.75353 16.271 7.70704C16.3141 7.86686 16.4188 8.00307 16.5622 8.08578C16.7056 8.16848 16.8759 8.19093 17.0358 8.14819C17.1958 8.10545 17.3322 8.00102 17.4152 7.85782C17.4982 7.71461 17.521 7.54432 17.4786 7.38432C17.1652 6.21872 16.551 5.15594 15.6975 4.30246C14.844 3.44898 13.7812 2.83476 12.6156 2.52134C12.4556 2.47894 12.2853 2.50175 12.1421 2.58476C11.9989 2.66777 11.8945 2.80419 11.8518 2.96411C11.809 3.12402 11.8315 3.29436 11.9142 3.43774C11.9969 3.58112 12.1331 3.68584 12.2929 3.72892L12.2929 3.72892Z" fill="url(#paint1_linear_1_990)"/>
<path d="M11.6459 6.14396C12.1756 6.2864 12.6586 6.56553 13.0464 6.95338C13.4343 7.34123 13.7134 7.8242 13.8559 8.35389C13.8989 8.51371 14.0037 8.64992 14.147 8.73263C14.2904 8.81533 14.4608 8.83778 14.6207 8.79504C14.7806 8.7523 14.917 8.64787 15 8.50467C15.083 8.36146 15.1058 8.19117 15.0634 8.03117C14.864 7.28938 14.4731 6.61302 13.93 6.06987C13.3868 5.52671 12.7105 5.13583 11.9687 4.93638C11.8087 4.89398 11.6384 4.91679 11.4952 4.9998C11.352 5.0828 11.2475 5.21923 11.2048 5.37915C11.162 5.53906 11.1845 5.7094 11.2672 5.85278C11.3499 5.99616 11.4861 6.10088 11.6459 6.14396L11.6459 6.14396Z" fill="url(#paint2_linear_1_990)"/>
<defs>
<linearGradient id="paint0_linear_1_990" x1="10.2997" y1="1.90039" x2="10.2997" y2="17.4998" gradientUnits="userSpaceOnUse">
<stop stop-color="#549CDF"/>
<stop offset="1" stop-color="#40CFBE"/>
</linearGradient>
<linearGradient id="paint1_linear_1_990" x1="14.665" y1="2.50049" x2="14.665" y2="8.16938" gradientUnits="userSpaceOnUse">
<stop stop-color="#549CDF"/>
<stop offset="1" stop-color="#40CFBE"/>
</linearGradient>
<linearGradient id="paint2_linear_1_990" x1="13.1339" y1="4.91553" x2="13.1339" y2="8.81623" gradientUnits="userSpaceOnUse">
<stop stop-color="#549CDF"/>
<stop offset="1" stop-color="#40CFBE"/>
</linearGradient>
</defs>
</svg>
