<svg width="42" height="42" viewBox="0 0 42 42" fill="none" xmlns="http://www.w3.org/2000/svg">
<path d="M21.0012 39.0094C20.8334 39.0092 20.6681 38.9693 20.5187 38.893C20.4058 38.8363 17.7167 37.459 14.2037 34.904C10.9618 32.5419 6.38385 28.6905 3.00784 23.7358C2.51317 23.0121 2.06753 22.2562 1.6739 21.473C1.59285 21.3108 1.55462 21.1305 1.56281 20.9493C1.57101 20.7681 1.62537 20.5921 1.72073 20.4378C1.81606 20.2834 1.94928 20.1559 2.10774 20.0675C2.2662 19.9791 2.44464 19.9326 2.62611 19.9326H9.47178L11.2066 17.4492C11.3112 17.2992 11.4526 17.1788 11.6173 17.0994C11.782 17.02 11.9644 16.9843 12.1468 16.9959C12.3293 17.0074 12.5057 17.0658 12.659 17.1653C12.8124 17.2648 12.9375 17.4022 13.0223 17.5641L15.1041 21.5376L18.6064 14.0377C18.7003 13.8356 18.8553 13.6681 19.0495 13.5588C19.2437 13.4494 19.4673 13.4038 19.6888 13.4283C19.9103 13.4529 20.1185 13.5463 20.2841 13.6955C20.4496 13.8447 20.5642 14.042 20.6116 14.2598L22.797 24.2076L25.8793 17.6088C25.9631 17.4291 26.0956 17.2763 26.2617 17.1678C26.4278 17.0593 26.6209 16.9994 26.8192 16.9948C27.0176 16.9902 27.2132 17.0412 27.3842 17.1419C27.5551 17.2426 27.6944 17.3891 27.7865 17.5649L30.0535 21.8931L31.1029 20.3888C31.201 20.2484 31.3316 20.1337 31.4836 20.0545C31.6355 19.9753 31.8043 19.934 31.9757 19.934H38.705C40.7336 15.4135 40.1028 10.9122 36.9687 7.79302C33.3876 4.22757 27.5609 4.22757 23.9791 7.79302C23.3717 8.39755 22.6068 9.11348 21.7973 9.87198L21.7299 9.93443C21.5327 10.119 21.2727 10.2217 21.0026 10.2217C20.7325 10.2217 20.4725 10.119 20.2753 9.93443L20.2043 9.86844C19.3947 9.1071 18.6313 8.39755 18.0246 7.79089C14.4436 4.22615 8.61607 4.22615 5.03501 7.79089C2.66513 10.1494 1.70015 13.3409 2.30894 16.7758C2.35849 17.0537 2.29566 17.3398 2.13426 17.5714C1.97285 17.8029 1.7261 17.9608 1.44826 18.0104C1.31064 18.035 1.16953 18.0322 1.03299 18.0021C0.896456 17.9721 0.767172 17.9155 0.652523 17.8355C0.537874 17.7555 0.440107 17.6537 0.364805 17.5359C0.289504 17.4182 0.238144 17.2867 0.213658 17.1491C-0.151757 15.0992 -0.0474539 13.1118 0.523019 11.2421C1.09864 9.36447 2.1331 7.65988 3.5329 6.28241C7.94271 1.89317 15.1169 1.89317 19.5267 6.28241C19.9461 6.70033 20.4534 7.18211 21.0012 7.69724C21.5489 7.18211 22.0562 6.70387 22.4763 6.28241C26.8854 1.89317 34.0603 1.89317 38.4694 6.28241C40.364 8.14784 41.5742 10.5977 41.9043 13.2359C42.2385 15.8939 41.6914 18.7413 40.3284 21.4716C40.2379 21.6527 40.0977 21.8042 39.9241 21.9084C39.7506 22.0126 39.5509 22.0651 39.3485 22.0598H32.5319L30.7964 24.5432C30.6923 24.6937 30.5511 24.8148 30.3865 24.8948C30.2219 24.9748 30.0395 25.0111 29.8569 25C29.6742 24.989 29.4975 24.931 29.3437 24.8317C29.19 24.7324 29.0645 24.5952 28.9793 24.4332L26.8975 20.4598L23.3952 27.9561C23.3008 28.1574 23.1459 28.3241 22.952 28.4328C22.7581 28.5416 22.535 28.5869 22.3141 28.5624C22.0932 28.5379 21.8854 28.4448 21.7201 28.2963C21.5547 28.1477 21.44 27.9511 21.3921 27.734L19.2067 17.7862L16.1245 24.385C16.0405 24.5646 15.9081 24.7172 15.742 24.8255C15.576 24.9339 15.383 24.9937 15.1848 24.9983C14.9866 25.0029 14.7911 24.952 14.6202 24.8514C14.4494 24.7508 14.3101 24.6045 14.2179 24.429L11.9509 20.1008L10.9001 21.6043C10.802 21.7446 10.6716 21.8593 10.5198 21.9385C10.368 22.0176 10.1993 22.059 10.0281 22.0591H4.45318C4.55464 22.2187 4.65966 22.377 4.7668 22.5345C7.96187 27.2232 12.3263 30.8993 15.4248 33.1606C17.2084 34.4665 19.0705 35.6617 21.0004 36.7396C22.9453 35.666 30.3558 31.3144 35.7171 24.5936C35.803 24.481 35.9106 24.3866 36.0335 24.3161C36.1564 24.2456 36.2921 24.2004 36.4327 24.183C36.5733 24.1657 36.716 24.1765 36.8523 24.215C36.9887 24.2535 37.1159 24.3188 37.2267 24.4072C37.3375 24.4955 37.4295 24.6051 37.4974 24.7294C37.5652 24.8538 37.6076 24.9904 37.622 25.1314C37.6363 25.2723 37.6224 25.4147 37.581 25.5502C37.5396 25.6857 37.4716 25.8116 37.381 25.9204C33.9879 30.1777 29.8527 33.4721 26.9812 35.4893C23.8698 37.6747 21.5801 38.8476 21.4836 38.8951C21.334 38.9707 21.1687 39.0098 21.0012 39.0094Z" fill="url(#paint0_linear_1_1005)"/>
<defs>
<linearGradient id="paint0_linear_1_1005" x1="21" y1="2.99048" x2="21" y2="39.0094" gradientUnits="userSpaceOnUse">
<stop stop-color="#549CDF"/>
<stop offset="1" stop-color="#40CFBE"/>
</linearGradient>
</defs>
</svg>
