<svg width="42" height="42" viewBox="0 0 42 42" fill="none" xmlns="http://www.w3.org/2000/svg">
<g clip-path="url(#clip0_1_1008)">
<path d="M36.1846 22.7601C36.0709 22.7905 35.9637 22.841 35.8678 22.9093L27.1796 29.0978C26.7025 29.2685 24.3387 30.0201 19.7065 30.0281C19.4221 29.9475 18.8593 29.6302 18.6637 29.4035C18.7867 29.2878 19.117 29.0493 19.9315 28.7676L29.5354 25.4467C29.5766 25.4325 29.6167 25.4156 29.6555 25.396C30.2211 25.1095 30.68 24.6494 30.9651 24.0831C31.2503 23.5169 31.3467 22.8742 31.2402 22.2493C31.1337 21.6243 30.83 21.0498 30.3734 20.6099C29.9169 20.17 29.3315 19.8879 28.703 19.8047C28.6125 19.793 28.5208 19.7939 28.4306 19.8076L14.1154 21.965C14.0006 21.9823 13.8897 22.0198 13.788 22.0757C11.658 23.2373 9.61304 24.5483 7.66845 25.999C7.64001 25.7598 7.52488 25.5394 7.34485 25.3794C7.16482 25.2194 6.93238 25.131 6.69154 25.1308H2.03069C1.4758 25.1314 0.943816 25.3522 0.551481 25.7445C0.159146 26.1369 -0.0614906 26.669 -0.0620117 27.2239V39.9072C-0.0613821 40.462 0.1593 40.9939 0.551621 41.3863C0.943942 41.7786 1.47586 41.9993 2.03069 41.9999H6.69195C6.95302 41.9999 7.2034 41.8962 7.38801 41.7116C7.57261 41.527 7.67632 41.2766 7.67632 41.0155V39.8912C10.107 38.3355 11.4119 37.8844 12.0809 37.7872C13.0243 37.6554 15.5001 37.6717 21.9411 38.5C21.9516 38.5013 21.9621 38.5024 21.9726 38.5035C24.5304 38.7483 27.5381 37.625 31.1684 35.069C34.1403 32.9764 37.0027 30.2985 39.3025 28.1466C40.06 27.4379 40.7755 26.7685 41.3949 26.2149C41.4703 26.1474 41.535 26.0687 41.5865 25.9815C42.0623 25.1754 42.0527 24.3409 41.5597 23.6911C40.5289 22.333 37.7959 22.3288 36.1846 22.7601ZM2.03069 40.0311C1.99807 40.0303 1.96701 40.017 1.94394 39.9939C1.92087 39.9709 1.90755 39.9398 1.90674 39.9072V27.2239C1.90757 27.1912 1.9209 27.1602 1.94397 27.1372C1.96704 27.1141 1.99808 27.1008 2.03069 27.1H5.70757V40.0311H2.03069ZM39.9491 24.8673C39.3462 25.4101 38.6705 26.0424 37.958 26.709C33.5809 30.8039 26.9697 36.9891 22.1756 36.5448C16.765 35.8494 13.3736 35.6179 11.8029 35.8379C10.7529 35.9905 9.39258 36.5643 7.67673 37.5789V28.4933C9.11351 27.3198 11.3964 25.651 14.5838 23.8859L28.568 21.7777C29.1407 21.9103 29.2724 22.419 29.2998 22.5797C29.3281 22.746 29.3744 23.3005 28.8218 23.6104L19.2885 26.907C18.391 27.2174 17.7453 27.5651 17.3144 27.9702C16.6134 28.6291 16.6118 29.3237 16.6733 29.6789C16.9179 31.0943 18.9631 31.9947 19.6318 31.9969C25.271 31.9969 27.9147 30.9277 28.0246 30.8823C28.0931 30.8539 28.1582 30.8178 28.2187 30.7747L36.8584 24.6208C38.2332 24.3021 39.6484 24.5627 39.9577 24.8445L39.9491 24.8673ZM39.3059 1.10732C37.0134 -0.550781 33.7687 -0.317074 31.1725 1.61739C28.5762 -0.316992 25.3312 -0.550699 23.0391 1.10732C21.7519 2.03837 20.8382 3.48409 20.4662 5.17828C20.1098 6.78393 20.2692 8.4611 20.9217 9.97087C20.9281 9.98539 20.9349 9.99983 20.942 10.0141C23.0797 14.2899 26.2753 17.5118 30.7113 19.8642C30.8533 19.9395 31.0117 19.9789 31.1725 19.9789C31.3332 19.9789 31.4916 19.9395 31.6336 19.8642C36.0696 17.5118 39.2652 14.2899 41.4029 10.0141C41.41 9.99983 41.4168 9.98539 41.4232 9.97087C42.0757 8.4611 42.2351 6.78392 41.8786 5.17828C41.5067 3.48417 40.593 2.03845 39.3059 1.10732ZM39.6309 9.15565C37.7576 12.8922 34.9872 15.7489 31.1725 17.8742C27.358 15.749 24.5873 12.8923 22.714 9.15565C21.7132 6.85836 22.3603 4.02796 24.1929 2.7025C26.2137 1.24095 28.8857 2.15387 30.5134 3.62075C30.6942 3.78373 30.929 3.87392 31.1725 3.87392C31.4159 3.87392 31.6507 3.78373 31.8315 3.62075C33.459 2.15387 36.1312 1.24086 38.1521 2.70258C39.9846 4.02804 40.6317 6.85836 39.6309 9.15565Z" fill="url(#paint0_linear_1_1008)"/>
</g>
<defs>
<linearGradient id="paint0_linear_1_1008" x1="21.0011" y1="0.000732422" x2="21.0011" y2="41.9999" gradientUnits="userSpaceOnUse">
<stop stop-color="#549CDF"/>
<stop offset="1" stop-color="#40CFBE"/>
</linearGradient>
<clipPath id="clip0_1_1008">
<rect width="42" height="42" fill="white"/>
</clipPath>
</defs>
</svg>
