<svg width="42" height="42" viewBox="0 0 42 42" fill="none" xmlns="http://www.w3.org/2000/svg">
<path d="M10.0862 35.3706C7.15637 35.3706 4.6855 33.0242 4.6855 30.1396C4.6855 28.8793 5.13895 27.7234 5.8938 26.8211C3.26726 26.5085 1.23145 24.3078 1.23145 21.6374C1.23145 18.8312 3.47933 16.5426 6.29881 16.4202C5.56038 15.5228 5.11727 14.3801 5.11727 13.1353C5.11727 10.2506 7.5003 7.91111 10.4301 7.91111C10.3999 7.68368 10.3848 7.4545 10.3848 7.22506C10.3848 4.3404 12.7599 2.00195 15.6896 2.00195C18.6193 2.00195 20.9945 4.3404 20.9945 7.22506H21.0006V34.5974C21.0006 37.58 18.5449 39.998 15.5155 39.998C12.7528 39.9979 10.4672 37.9869 10.0862 35.3706Z" stroke="url(#paint0_linear_1_1000)" stroke-width="2" stroke-miterlimit="10" stroke-linecap="round" stroke-linejoin="round"/>
<path d="M10.1281 16.9042C12.4143 16.9042 14.2676 18.729 14.2676 20.9799C14.2676 23.2309 12.4143 25.0557 10.1281 25.0557M10.43 7.91095C10.758 10.3723 12.8966 12.2724 15.4859 12.2724M10.0861 35.3705C10.0489 35.1145 10.0302 34.856 10.0303 34.5973C10.0303 31.6147 12.486 29.1967 15.5154 29.1967M20.9992 34.5973C20.9992 37.5799 23.4549 39.9979 26.4843 39.9979C29.2469 39.9979 31.5326 37.9869 31.9135 35.3705C34.8434 35.3705 37.3142 33.0241 37.3142 30.1395C37.3142 28.8793 36.8608 27.7233 36.1059 26.821C38.7325 26.5086 40.7683 24.3078 40.7683 21.6374C40.7683 18.8312 38.5204 16.5426 35.7009 16.4202C36.4393 15.5227 36.8825 14.3801 36.8825 13.1353C36.8825 10.2506 34.4994 7.91111 31.5696 7.91111C31.5995 7.68656 31.6149 7.45758 31.6149 7.22506C31.6149 4.3404 29.2399 2.00195 26.31 2.00195C23.3802 2.00195 21.0052 4.3404 21.0052 7.22506H20.9991" stroke="url(#paint1_linear_1_1000)" stroke-width="2" stroke-miterlimit="10" stroke-linecap="round" stroke-linejoin="round"/>
<path d="M31.8717 16.9044C29.5855 16.9044 27.7322 18.7292 27.7322 20.9801C27.7322 23.2311 29.5855 25.0558 31.8717 25.0558M31.5698 7.91113C31.2418 10.3725 29.1032 12.2726 26.5139 12.2726M31.9136 35.3707C31.9504 35.1182 31.9695 34.86 31.9695 34.5975C31.9695 31.6148 29.5137 29.1968 26.4844 29.1968" stroke="url(#paint2_linear_1_1000)" stroke-width="2" stroke-miterlimit="10" stroke-linecap="round" stroke-linejoin="round"/>
<defs>
<linearGradient id="paint0_linear_1_1000" x1="11.116" y1="2.00195" x2="11.116" y2="39.998" gradientUnits="userSpaceOnUse">
<stop stop-color="#549CDF"/>
<stop offset="1" stop-color="#40CFBE"/>
</linearGradient>
<linearGradient id="paint1_linear_1_1000" x1="25.3993" y1="2.00195" x2="25.3993" y2="39.9979" gradientUnits="userSpaceOnUse">
<stop stop-color="#549CDF"/>
<stop offset="1" stop-color="#40CFBE"/>
</linearGradient>
<linearGradient id="paint2_linear_1_1000" x1="29.2269" y1="7.91113" x2="29.2269" y2="35.3707" gradientUnits="userSpaceOnUse">
<stop stop-color="#549CDF"/>
<stop offset="1" stop-color="#40CFBE"/>
</linearGradient>
</defs>
</svg>
