<svg width="48" height="48" viewBox="0 0 48 48" fill="none" xmlns="http://www.w3.org/2000/svg">
<path d="M37.5 10.5L10.5 37.5" stroke="url(#paint0_linear_1_955)" stroke-width="3" stroke-linecap="round" stroke-linejoin="round"/>
<path d="M14.25 19.5C17.1495 19.5 19.5 17.1495 19.5 14.25C19.5 11.3505 17.1495 9 14.25 9C11.3505 9 9 11.3505 9 14.25C9 17.1495 11.3505 19.5 14.25 19.5Z" stroke="url(#paint1_linear_1_955)" stroke-width="3" stroke-miterlimit="10"/>
<path d="M33.75 39C36.6495 39 39 36.6495 39 33.75C39 30.8505 36.6495 28.5 33.75 28.5C30.8505 28.5 28.5 30.8505 28.5 33.75C28.5 36.6495 30.8505 39 33.75 39Z" stroke="url(#paint2_linear_1_955)" stroke-width="3" stroke-miterlimit="10"/>
<defs>
<linearGradient id="paint0_linear_1_955" x1="24" y1="10.5" x2="24" y2="37.5" gradientUnits="userSpaceOnUse">
<stop stop-color="#549CDF"/>
<stop offset="1" stop-color="#40CFBE"/>
</linearGradient>
<linearGradient id="paint1_linear_1_955" x1="14.25" y1="9" x2="14.25" y2="19.5" gradientUnits="userSpaceOnUse">
<stop stop-color="#549CDF"/>
<stop offset="1" stop-color="#40CFBE"/>
</linearGradient>
<linearGradient id="paint2_linear_1_955" x1="33.75" y1="28.5" x2="33.75" y2="39" gradientUnits="userSpaceOnUse">
<stop stop-color="#549CDF"/>
<stop offset="1" stop-color="#40CFBE"/>
</linearGradient>
</defs>
</svg>
