<svg width="48" height="48" viewBox="0 0 48 48" fill="none" xmlns="http://www.w3.org/2000/svg">
<path d="M8.4616 36.7533C8.50836 36.9505 8.59453 37.1362 8.71492 37.2992C8.83531 37.4622 8.98743 37.5992 9.16213 37.7018C9.33683 37.8045 9.5305 37.8708 9.73149 37.8967C9.93247 37.9226 10.1366 37.9075 10.3316 37.8525C19.2734 35.3836 28.7168 35.3827 37.659 37.8499C37.854 37.9049 38.058 37.9199 38.2589 37.894C38.4599 37.8681 38.6535 37.8019 38.8281 37.6993C39.0028 37.5966 39.1548 37.4597 39.2752 37.2968C39.3956 37.1339 39.4818 36.9483 39.5286 36.7513L44.3078 16.4418C44.3718 16.17 44.3585 15.8856 44.2696 15.6208C44.1807 15.356 44.0197 15.1213 43.8046 14.9431C43.5895 14.7649 43.3289 14.6504 43.0522 14.6123C42.7755 14.5742 42.4937 14.6141 42.2384 14.7275L32.754 18.9428C32.4115 19.0951 32.0245 19.1135 31.669 18.9947C31.3136 18.8758 31.0156 18.6282 30.8335 18.3006L25.3112 8.3604C25.1813 8.12656 24.9912 7.93172 24.7607 7.79606C24.5301 7.6604 24.2675 7.58887 24 7.58887C23.7325 7.58887 23.4698 7.6604 23.2393 7.79606C23.0087 7.93172 22.8187 8.12656 22.6887 8.3604L17.1664 18.3006C16.9844 18.6282 16.6864 18.8758 16.3309 18.9947C15.9755 19.1135 15.5885 19.0951 15.246 18.9428L5.76009 14.7269C5.5049 14.6135 5.22311 14.5735 4.94646 14.6116C4.66981 14.6497 4.40927 14.7642 4.19418 14.9423C3.9791 15.1204 3.818 15.355 3.72904 15.6197C3.64007 15.8844 3.62676 16.1687 3.69062 16.4406L8.4616 36.7533Z" stroke="url(#paint0_linear_1_961)" stroke-width="3" stroke-linecap="round" stroke-linejoin="round"/>
<path d="M18 30.3148C21.989 29.8951 26.011 29.8951 30 30.3148" stroke="url(#paint1_linear_1_961)" stroke-width="3" stroke-linecap="round" stroke-linejoin="round"/>
<defs>
<linearGradient id="paint0_linear_1_961" x1="23.9993" y1="7.58887" x2="23.9993" y2="37.909" gradientUnits="userSpaceOnUse">
<stop stop-color="#549CDF"/>
<stop offset="1" stop-color="#40CFBE"/>
</linearGradient>
<linearGradient id="paint1_linear_1_961" x1="24" y1="30" x2="24" y2="30.3148" gradientUnits="userSpaceOnUse">
<stop stop-color="#549CDF"/>
<stop offset="1" stop-color="#40CFBE"/>
</linearGradient>
</defs>
</svg>
